<svg xmlns="http://www.w3.org/2000/svg" viewBox="0 0 400 260"><rect width="400" height="260" fill="#0e1512"/><polygon points="96.2,206.5 97.5,206.7 98.8,206.9 100.1,207.0 101.4,207.2 102.7,207.3 104.0,207.4 105.4,207.5 106.8,207.5 108.1,207.6 109.5,207.6 111.0,207.6 112.4,207.7 113.8,207.7 115.3,207.7 116.7,207.7 118.2,207.6 119.7,207.6 121.2,207.6 122.7,207.5 124.3,207.5 125.8,207.4 127.4,207.4 128.9,207.3 130.5,207.3 132.1,207.2 133.7,207.2 135.3,207.1 136.9,207.0 138.6,207.0 140.2,206.9 141.9,206.8 143.5,206.8 145.2,206.7 146.9,206.7 148.6,206.7 150.3,206.6 152.0,206.6 153.7,206.6 155.4,206.6 157.2,206.5 158.9,206.5 160.7,206.5 162.5,206.5 164.2,206.5 166.0,206.5 167.8,206.5 169.6,206.5 171.5,206.5 173.3,206.5 175.1,206.5 177.0,206.5 178.9,206.5 180.7,206.5 182.6,206.5 184.5,206.5 186.4,206.5 188.4,206.5 190.3,206.5 192.2,206.5 194.2,206.5 196.1,206.5 198.1,206.5 200.1,206.5 202.1,206.5 204.1,206.5 206.1,206.5 208.2,206.5 210.2,206.5 212.2,206.5 214.3,206.5 216.4,206.5 218.5,206.5 220.6,206.5 222.7,206.5 224.8,206.5 226.9,206.5 229.0,206.5 231.2,206.5 233.4,206.5 235.5,206.5 237.7,206.6 240.0,206.6 242.3,206.6 244.6,206.7 247.0,206.7 249.5,206.8 251.9,206.9 254.4,207.0 257.0,207.1 259.5,207.2 262.1,207.3 264.7,207.4 267.3,207.6 269.9,207.7 272.5,207.8 275.2,207.9 277.8,208.0 280.5,208.1 283.1,208.2 285.7,208.3 288.3,208.4 290.9,208.5 293.5,208.5 296.1,208.6 298.6,208.6 301.1,208.6 303.6,208.6 306.0,208.6 308.4,208.6 310.8,208.5 313.1,208.5 315.3,208.4 317.5,208.2 319.7,208.1 321.8,207.9 323.8,207.7 325.8,207.5 327.7,207.2 329.5,206.9 331.3,206.5 333.0,206.2 334.6,205.8 336.2,205.4 337.8,205.0 339.3,204.6 340.8,204.1 342.2,203.6 343.6,203.2 345.0,202.6 346.3,202.1 347.6,201.6 348.8,201.0 350.1,200.5 351.2,199.9 352.4,199.3 353.5,198.6 354.6,198.0 355.6,197.3 356.7,196.6 357.7,195.9 358.6,195.2 359.6,194.5 360.5,193.7 361.4,193.0 362.2,192.2 363.1,191.4 363.9,190.6 364.7,189.7 365.4,188.9 366.2,188.0 366.9,187.1 367.6,186.2 368.3,185.3 368.9,184.3 369.6,183.3 370.2,182.4 370.9,181.4 371.5,180.3 372.0,179.3 372.6,178.3 373.2,177.2 373.7,176.0 374.2,174.9 374.7,173.7 375.2,172.4 375.7,171.1 376.1,169.8 376.5,168.4 376.9,167.1 377.3,165.6 377.6,164.2 378.0,162.7 378.3,161.3 378.5,159.8 378.8,158.3 379.0,156.7 379.2,155.2 379.4,153.6 379.6,152.1 379.7,150.5 379.8,148.9 379.9,147.4 380.0,145.8 380.0,144.3 380.0,142.7 380.0,141.2 379.9,139.6 379.9,138.1 379.8,136.6 379.7,135.1 379.5,133.6 379.3,132.2 379.1,130.8 378.9,129.4 378.7,128.0 378.4,126.7 378.1,125.4 377.7,124.1 377.4,122.9 377.0,121.7 376.5,120.5 376.1,119.3 375.6,118.2 375.0,117.0 374.5,115.9 373.8,114.8 373.2,113.7 372.5,112.5 371.8,111.4 371.0,110.3 370.3,109.3 369.5,108.2 368.6,107.1 367.8,106.1 366.9,105.0 366.0,104.0 365.1,103.0 364.1,102.0 363.1,101.0 362.2,100.1 361.1,99.1 360.1,98.2 359.1,97.2 358.0,96.3 356.9,95.5 355.9,94.6 354.8,93.8 353.7,92.9 352.5,92.1 351.4,91.3 350.3,90.6 349.2,89.8 348.0,89.1 346.9,88.4 345.7,87.7 344.6,87.1 343.4,86.4 342.3,85.8 341.1,85.2 340.0,84.7 338.8,84.1 337.6,83.6 336.4,83.1 335.1,82.6 333.8,82.1 332.5,81.7 331.1,81.2 329.7,80.8 328.3,80.3 326.9,79.9 325.4,79.5 324.0,79.2 322.5,78.8 321.0,78.5 319.5,78.2 318.0,77.9 316.5,77.6 315.0,77.4 313.5,77.1 312.0,76.9 310.5,76.7 309.0,76.6 307.5,76.4 306.0,76.3 304.5,76.2 303.1,76.2 301.6,76.1 300.2,76.1 298.8,76.1 297.4,76.2 296.1,76.2 294.8,76.3 293.5,76.4 292.3,76.6 291.0,76.8 289.9,77.0 288.7,77.2 287.6,77.5 286.6,77.8 285.6,78.2 284.6,78.5 283.7,79.0 282.8,79.5 282.0,80.0 281.2,80.6 280.4,81.3 279.7,82.0 279.0,82.7 278.3,83.5 277.7,84.4 277.1,85.2 276.5,86.1 275.9,87.0 275.4,88.0 274.8,88.9 274.3,89.9 273.8,90.9 273.3,92.0 272.9,93.0 272.4,94.1 271.9,95.1 271.5,96.2 271.0,97.2 270.5,98.3 270.1,99.4 269.6,100.4 269.1,101.5 268.7,102.5 268.2,103.5 267.7,104.5 267.2,105.5 266.6,106.5 266.1,107.4 265.5,108.3 264.9,109.2 264.3,110.0 263.7,110.8 263.0,111.6 262.4,112.3 261.6,113.0 260.9,113.6 260.1,114.3 259.4,115.0 258.6,115.6 257.8,116.3 257.0,117.0 256.2,117.7 255.4,118.4 254.5,119.0 253.7,119.7 252.9,120.4 252.0,121.1 251.1,121.7 250.3,122.3 249.4,123.0 248.5,123.6 247.6,124.2 246.7,124.8 245.8,125.3 244.9,125.9 244.0,126.4 243.1,126.9 242.2,127.4 241.3,127.9 240.4,128.3 239.4,128.7 238.5,129.0 237.6,129.4 236.7,129.7 235.8,130.0 234.9,130.2 234.0,130.4 233.1,130.5 232.1,130.6 231.2,130.7 230.4,130.7 229.5,130.7 228.6,130.7 227.7,130.5 226.8,130.4 226.0,130.2 225.1,129.9 224.2,129.6 223.4,129.2 222.5,128.8 221.7,128.3 220.8,127.8 220.0,127.2 219.2,126.6 218.3,125.9 217.5,125.3 216.6,124.5 215.8,123.8 215.0,123.0 214.1,122.2 213.3,121.3 212.5,120.5 211.6,119.6 210.8,118.7 210.0,117.7 209.1,116.8 208.3,115.8 207.4,114.8 206.6,113.8 205.7,112.8 204.8,111.8 204.0,110.8 203.1,109.7 202.2,108.7 201.3,107.7 200.4,106.7 199.5,105.6 198.6,104.6 197.7,103.6 196.8,102.6 195.8,101.6 194.9,100.6 193.9,99.6 193.0,98.7 192.0,97.7 191.0,96.8 190.1,95.8 189.1,94.8 188.1,93.8 187.2,92.7 186.3,91.6 185.3,90.5 184.4,89.4 183.4,88.2 182.5,87.0 181.6,85.9 180.6,84.7 179.7,83.5 178.7,82.3 177.8,81.1 176.8,79.8 175.8,78.6 174.8,77.4 173.8,76.2 172.8,75.0 171.8,73.8 170.8,72.7 169.7,71.5 168.7,70.4 167.6,69.2 166.5,68.2 165.4,67.1 164.2,66.0 163.0,65.0 161.9,64.0 160.6,63.1 159.4,62.2 158.1,61.3 156.9,60.4 155.5,59.6 154.2,58.9 152.8,58.2 151.4,57.5 150.0,56.9 148.5,56.4 147.0,55.9 145.4,55.4 143.7,55.0 142.0,54.5 140.3,54.1 138.5,53.8 136.7,53.4 134.8,53.1 132.9,52.8 131.0,52.6 129.0,52.3 127.0,52.1 125.0,51.9 122.9,51.8 120.9,51.6 118.8,51.5 116.7,51.5 114.6,51.4 112.5,51.4 110.4,51.4 108.3,51.4 106.2,51.4 104.1,51.5 102.0,51.6 99.9,51.7 97.9,51.8 95.8,52.0 93.8,52.2 91.8,52.4 89.8,52.7 87.9,52.9 86.0,53.2 84.1,53.5 82.3,53.9 80.5,54.2 78.8,54.6 77.1,55.0 75.4,55.5 73.8,55.9 72.3,56.4 70.8,56.9 69.4,57.4 67.9,58.0 66.5,58.7 65.1,59.3 63.7,60.0 62.3,60.7 60.9,61.5 59.6,62.3 58.3,63.1 57.0,63.9 55.7,64.8 54.4,65.7 53.2,66.6 52.0,67.5 50.8,68.5 49.6,69.5 48.4,70.5 47.3,71.5 46.2,72.6 45.1,73.6 44.0,74.7 43.0,75.8 42.0,76.9 41.0,78.0 40.0,79.2 39.0,80.3 38.1,81.5 37.2,82.6 36.3,83.8 35.4,85.0 34.6,86.1 33.8,87.3 33.0,88.5 32.2,89.7 31.5,90.9 30.8,92.0 30.1,93.2 29.4,94.4 28.8,95.6 28.2,96.7 27.6,98.0 27.0,99.2 26.4,100.4 25.9,101.7 25.4,103.0 24.9,104.3 24.5,105.7 24.0,107.0 23.6,108.4 23.2,109.8 22.8,111.2 22.5,112.6 22.1,114.0 21.8,115.4 21.5,116.9 21.3,118.3 21.0,119.7 20.8,121.2 20.6,122.6 20.5,124.1 20.3,125.5 20.2,127.0 20.1,128.4 20.1,129.9 20.0,131.3 20.0,132.7 20.0,134.1 20.1,135.5 20.1,136.9 20.2,138.3 20.3,139.7 20.5,141.0 20.6,142.4 20.8,143.7 21.1,145.0 21.3,146.3 21.6,147.5 21.9,148.8 22.3,150.0 22.6,151.2 23.1,152.4 23.5,153.6 24.0,154.7 24.6,155.9 25.2,157.1 25.8,158.3 26.5,159.5 27.2,160.7 28.0,161.8 28.7,163.0 29.5,164.2 30.4,165.3 31.2,166.4 32.1,167.6 33.0,168.7 33.9,169.8 34.9,170.9 35.8,172.0 36.8,173.1 37.8,174.2 38.8,175.2 39.8,176.3 40.9,177.3 41.9,178.3 42.9,179.3 44.0,180.3 45.0,181.2 46.1,182.2 47.1,183.1 48.1,184.0 49.2,184.9 50.2,185.8 51.2,186.7 52.2,187.5 53.2,188.3 54.2,189.1 55.2,189.9 56.1,190.6 57.1,191.3 58.0,192.0 58.9,192.7 59.8,193.3 60.7,194.0 61.6,194.6 62.5,195.2 63.4,195.7 64.3,196.3 65.2,196.8 66.1,197.3 66.9,197.8 67.8,198.3 68.7,198.7 69.6,199.2 70.5,199.6 71.4,200.0 72.3,200.4 73.2,200.8 74.1,201.2 75.0,201.5 76.0,201.9 76.9,202.2 77.8,202.5 78.8,202.8 79.8,203.1 80.8,203.4 81.8,203.7 82.8,203.9 83.8,204.2 84.8,204.4 85.9,204.7 87.0,204.9 88.0,205.1 89.2,205.3 90.3,205.6 91.4,205.8 92.6,206.0 93.8,206.2 95.0,206.4" fill="none" stroke="#dfe6df" stroke-width="7" stroke-linejoin="round"/><polygon points="96.2,206.5 97.5,206.7 98.8,206.9 100.1,207.0 101.4,207.2 102.7,207.3 104.0,207.4 105.4,207.5 106.8,207.5 108.1,207.6 109.5,207.6 111.0,207.6 112.4,207.7 113.8,207.7 115.3,207.7 116.7,207.7 118.2,207.6 119.7,207.6 121.2,207.6 122.7,207.5 124.3,207.5 125.8,207.4 127.4,207.4 128.9,207.3 130.5,207.3 132.1,207.2 133.7,207.2 135.3,207.1 136.9,207.0 138.6,207.0 140.2,206.9 141.9,206.8 143.5,206.8 145.2,206.7 146.9,206.7 148.6,206.7 150.3,206.6 152.0,206.6 153.7,206.6 155.4,206.6 157.2,206.5 158.9,206.5 160.7,206.5 162.5,206.5 164.2,206.5 166.0,206.5 167.8,206.5 169.6,206.5 171.5,206.5 173.3,206.5 175.1,206.5 177.0,206.5 178.9,206.5 180.7,206.5 182.6,206.5 184.5,206.5 186.4,206.5 188.4,206.5 190.3,206.5 192.2,206.5 194.2,206.5 196.1,206.5 198.1,206.5 200.1,206.5 202.1,206.5 204.1,206.5 206.1,206.5 208.2,206.5 210.2,206.5 212.2,206.5 214.3,206.5 216.4,206.5 218.5,206.5 220.6,206.5 222.7,206.5 224.8,206.5 226.9,206.5 229.0,206.5 231.2,206.5 233.4,206.5 235.5,206.5 237.7,206.6 240.0,206.6 242.3,206.6 244.6,206.7 247.0,206.7 249.5,206.8 251.9,206.9 254.4,207.0 257.0,207.1 259.5,207.2 262.1,207.3 264.7,207.4 267.3,207.6 269.9,207.7 272.5,207.8 275.2,207.9 277.8,208.0 280.5,208.1 283.1,208.2 285.7,208.3 288.3,208.4 290.9,208.5 293.5,208.5 296.1,208.6 298.6,208.6 301.1,208.6 303.6,208.6 306.0,208.6 308.4,208.6 310.8,208.5 313.1,208.5 315.3,208.4 317.5,208.2 319.7,208.1 321.8,207.9 323.8,207.7 325.8,207.5 327.7,207.2 329.5,206.9 331.3,206.5 333.0,206.2 334.6,205.8 336.2,205.4 337.8,205.0 339.3,204.6 340.8,204.1 342.2,203.6 343.6,203.2 345.0,202.6 346.3,202.1 347.6,201.6 348.8,201.0 350.1,200.5 351.2,199.9 352.4,199.3 353.5,198.6 354.6,198.0 355.6,197.3 356.7,196.6 357.7,195.9 358.6,195.2 359.6,194.5 360.5,193.7 361.4,193.0 362.2,192.2 363.1,191.4 363.9,190.6 364.7,189.7 365.4,188.9 366.2,188.0 366.9,187.1 367.6,186.2 368.3,185.3 368.9,184.3 369.6,183.3 370.2,182.4 370.9,181.4 371.5,180.3 372.0,179.3 372.6,178.3 373.2,177.2 373.7,176.0 374.2,174.9 374.7,173.7 375.2,172.4 375.7,171.1 376.1,169.8 376.5,168.4 376.9,167.1 377.3,165.6 377.6,164.2 378.0,162.7 378.3,161.3 378.5,159.8 378.8,158.3 379.0,156.7 379.2,155.2 379.4,153.6 379.6,152.1 379.7,150.5 379.8,148.9 379.9,147.4 380.0,145.8 380.0,144.3 380.0,142.7 380.0,141.2 379.9,139.6 379.9,138.1 379.8,136.6 379.7,135.1 379.5,133.6 379.3,132.2 379.1,130.8 378.9,129.4 378.7,128.0 378.4,126.7 378.1,125.4 377.7,124.1 377.4,122.9 377.0,121.7 376.5,120.5 376.1,119.3 375.6,118.2 375.0,117.0 374.5,115.9 373.8,114.8 373.2,113.7 372.5,112.5 371.8,111.4 371.0,110.3 370.3,109.3 369.5,108.2 368.6,107.1 367.8,106.1 366.9,105.0 366.0,104.0 365.1,103.0 364.1,102.0 363.1,101.0 362.2,100.1 361.1,99.1 360.1,98.2 359.1,97.2 358.0,96.3 356.9,95.5 355.9,94.6 354.8,93.8 353.7,92.9 352.5,92.1 351.4,91.3 350.3,90.6 349.2,89.8 348.0,89.1 346.9,88.4 345.7,87.7 344.6,87.1 343.4,86.4 342.3,85.8 341.1,85.2 340.0,84.7 338.8,84.1 337.6,83.6 336.4,83.1 335.1,82.6 333.8,82.1 332.5,81.7 331.1,81.2 329.7,80.8 328.3,80.3 326.9,79.9 325.4,79.5 324.0,79.2 322.5,78.8 321.0,78.5 319.5,78.2 318.0,77.9 316.5,77.6 315.0,77.4 313.5,77.1 312.0,76.9 310.5,76.7 309.0,76.6 307.5,76.4 306.0,76.3 304.5,76.2 303.1,76.2 301.6,76.1 300.2,76.1 298.8,76.1 297.4,76.2 296.1,76.2 294.8,76.3 293.5,76.4 292.3,76.6 291.0,76.8 289.9,77.0 288.7,77.2 287.6,77.5 286.6,77.8 285.6,78.2 284.6,78.5 283.7,79.0 282.8,79.5 282.0,80.0 281.2,80.6 280.4,81.3 279.7,82.0 279.0,82.7 278.3,83.5 277.7,84.4 277.1,85.2 276.5,86.1 275.9,87.0 275.4,88.0 274.8,88.9 274.3,89.9 273.8,90.9 273.3,92.0 272.9,93.0 272.4,94.1 271.9,95.1 271.5,96.2 271.0,97.2 270.5,98.3 270.1,99.4 269.6,100.4 269.1,101.5 268.7,102.5 268.2,103.5 267.7,104.5 267.2,105.5 266.6,106.5 266.1,107.4 265.5,108.3 264.9,109.2 264.3,110.0 263.7,110.8 263.0,111.6 262.4,112.3 261.6,113.0 260.9,113.6 260.1,114.3 259.4,115.0 258.6,115.6 257.8,116.3 257.0,117.0 256.2,117.7 255.4,118.4 254.5,119.0 253.7,119.7 252.9,120.4 252.0,121.1 251.1,121.7 250.3,122.3 249.4,123.0 248.5,123.6 247.6,124.2 246.7,124.8 245.8,125.3 244.9,125.9 244.0,126.4 243.1,126.9 242.2,127.4 241.3,127.9 240.4,128.3 239.4,128.7 238.5,129.0 237.6,129.4 236.7,129.7 235.8,130.0 234.9,130.2 234.0,130.4 233.1,130.5 232.1,130.6 231.2,130.7 230.4,130.7 229.5,130.7 228.6,130.7 227.7,130.5 226.8,130.4 226.0,130.2 225.1,129.9 224.2,129.6 223.4,129.2 222.5,128.8 221.7,128.3 220.8,127.8 220.0,127.2 219.2,126.6 218.3,125.9 217.5,125.3 216.6,124.5 215.8,123.8 215.0,123.0 214.1,122.2 213.3,121.3 212.5,120.5 211.6,119.6 210.8,118.7 210.0,117.7 209.1,116.8 208.3,115.8 207.4,114.8 206.6,113.8 205.7,112.8 204.8,111.8 204.0,110.8 203.1,109.7 202.2,108.7 201.3,107.7 200.4,106.7 199.5,105.6 198.6,104.6 197.7,103.6 196.8,102.6 195.8,101.6 194.9,100.6 193.9,99.6 193.0,98.7 192.0,97.7 191.0,96.8 190.1,95.8 189.1,94.8 188.1,93.8 187.2,92.7 186.3,91.6 185.3,90.5 184.4,89.4 183.4,88.2 182.5,87.0 181.6,85.9 180.6,84.7 179.7,83.5 178.7,82.3 177.8,81.1 176.8,79.8 175.8,78.6 174.8,77.4 173.8,76.2 172.8,75.0 171.8,73.8 170.8,72.7 169.7,71.5 168.7,70.4 167.6,69.2 166.5,68.2 165.4,67.1 164.2,66.0 163.0,65.0 161.9,64.0 160.6,63.1 159.4,62.2 158.1,61.3 156.9,60.4 155.5,59.6 154.2,58.9 152.8,58.2 151.4,57.5 150.0,56.9 148.5,56.4 147.0,55.9 145.4,55.4 143.7,55.0 142.0,54.5 140.3,54.1 138.5,53.8 136.7,53.4 134.8,53.1 132.9,52.8 131.0,52.6 129.0,52.3 127.0,52.1 125.0,51.9 122.9,51.8 120.9,51.6 118.8,51.5 116.7,51.5 114.6,51.4 112.5,51.4 110.4,51.4 108.3,51.4 106.2,51.4 104.1,51.5 102.0,51.6 99.9,51.7 97.9,51.8 95.8,52.0 93.8,52.2 91.8,52.4 89.8,52.7 87.9,52.9 86.0,53.2 84.1,53.5 82.3,53.9 80.5,54.2 78.8,54.6 77.1,55.0 75.4,55.5 73.8,55.9 72.3,56.4 70.8,56.9 69.4,57.4 67.9,58.0 66.5,58.7 65.1,59.3 63.7,60.0 62.3,60.7 60.9,61.5 59.6,62.3 58.3,63.1 57.0,63.9 55.7,64.8 54.4,65.7 53.2,66.6 52.0,67.5 50.8,68.5 49.6,69.5 48.4,70.5 47.3,71.5 46.2,72.6 45.1,73.6 44.0,74.7 43.0,75.8 42.0,76.9 41.0,78.0 40.0,79.2 39.0,80.3 38.1,81.5 37.2,82.6 36.3,83.8 35.4,85.0 34.6,86.1 33.8,87.3 33.0,88.5 32.2,89.7 31.5,90.9 30.8,92.0 30.1,93.2 29.4,94.4 28.8,95.6 28.2,96.7 27.6,98.0 27.0,99.2 26.4,100.4 25.9,101.7 25.4,103.0 24.9,104.3 24.5,105.7 24.0,107.0 23.6,108.4 23.2,109.8 22.8,111.2 22.5,112.6 22.1,114.0 21.8,115.4 21.5,116.9 21.3,118.3 21.0,119.7 20.8,121.2 20.6,122.6 20.5,124.1 20.3,125.5 20.2,127.0 20.1,128.4 20.1,129.9 20.0,131.3 20.0,132.7 20.0,134.1 20.1,135.5 20.1,136.9 20.2,138.3 20.3,139.7 20.5,141.0 20.6,142.4 20.8,143.7 21.1,145.0 21.3,146.3 21.6,147.5 21.9,148.8 22.3,150.0 22.6,151.2 23.1,152.4 23.5,153.6 24.0,154.7 24.6,155.9 25.2,157.1 25.8,158.3 26.5,159.5 27.2,160.7 28.0,161.8 28.7,163.0 29.5,164.2 30.4,165.3 31.2,166.4 32.1,167.6 33.0,168.7 33.9,169.8 34.9,170.9 35.8,172.0 36.8,173.1 37.8,174.2 38.8,175.2 39.8,176.3 40.9,177.3 41.9,178.3 42.9,179.3 44.0,180.3 45.0,181.2 46.1,182.2 47.1,183.1 48.1,184.0 49.2,184.9 50.2,185.8 51.2,186.7 52.2,187.5 53.2,188.3 54.2,189.1 55.2,189.9 56.1,190.6 57.1,191.3 58.0,192.0 58.9,192.7 59.8,193.3 60.7,194.0 61.6,194.6 62.5,195.2 63.4,195.7 64.3,196.3 65.2,196.8 66.1,197.3 66.9,197.8 67.8,198.3 68.7,198.7 69.6,199.2 70.5,199.6 71.4,200.0 72.3,200.4 73.2,200.8 74.1,201.2 75.0,201.5 76.0,201.9 76.9,202.2 77.8,202.5 78.8,202.8 79.8,203.1 80.8,203.4 81.8,203.7 82.8,203.9 83.8,204.2 84.8,204.4 85.9,204.7 87.0,204.9 88.0,205.1 89.2,205.3 90.3,205.6 91.4,205.8 92.6,206.0 93.8,206.2 95.0,206.4" fill="none" stroke="#111a16" stroke-width="3.5" stroke-linejoin="round"/><circle cx="96.2" cy="206.5" r="5" fill="#ffd34d"/><text x="14" y="248" fill="#8fa397" font-family="monospace" font-size="11">PLACEHOLDER andesendurance · 2.15 km · punto amarillo = línea de largada (recorrido hacia +x)</text></svg>